<svg width="200" height="200" viewBox="0 0 200 200" fill="none" xmlns="http://www.w3.org/2000/svg">
    <defs>
        <filter id="filter0_d_34_36" x="45" y="32.0201" width="110" height="139.98"
            filterUnits="userSpaceOnUse" color-interpolation-filters="sRGB">
            <feFlood flood-opacity="0" result="BackgroundImageFix" />
            <feColorMatrix in="SourceAlpha" type="matrix"
                values="0 0 0 0 0 0 0 0 0 0 0 0 0 0 0 0 0 0 127 0" result="hardAlpha" />
            <feOffset dy="2" />
            <feGaussianBlur stdDeviation="5" />
            <feComposite in2="hardAlpha" operator="out" />
            <feColorMatrix type="matrix"
                values="0 0 0 0 0.129412 0 0 0 0 0.129412 0 0 0 0 0.129412 0 0 0 0.25 0" />
            <feBlend mode="normal" in2="BackgroundImageFix" result="effect1_dropShadow_34_36" />
            <feBlend mode="normal" in="SourceGraphic" in2="effect1_dropShadow_34_36"
                result="shape" />
        </filter>
        <linearGradient id="paint0_linear_34_36" x1="200" y1="0" x2="0" y2="200"
            gradientUnits="userSpaceOnUse">
            <stop stop-color="#FDD835" />
            <stop offset="0.725074" stop-color="#FF6D00" />
        </linearGradient>
    </defs>
    <circle cx="100" cy="100" r="100" fill="url(#paint0_linear_34_36)" />
    <g filter="url(#filter0_d_34_36)">
        <path
            d="M55 151V49.0201C55 44.0417 59.0417 40.009 64.0201 40.0201L115.899 40.1359C118.096 40.1408 120.215 40.9486 121.857 42.4073L141.977 60.2812C143.9 61.9891 145 64.438 145 67.0097V151C145 155.971 140.971 160 136 160H64C59.0294 160 55 155.971 55 151Z"
            fill="white" />
    </g>
    <path
        d="M82.096 124.864C79.216 124.864 76.888 124.048 75.112 122.416C73.336 120.784 72.448 118.744 72.448 116.296C72.448 113.272 73.456 111.016 75.472 109.528C77.488 107.992 79.888 107.008 82.672 106.576C85.456 106.096 89.056 105.736 93.472 105.496V99.808C93.472 97.456 92.872 95.68 91.672 94.48C90.52 93.232 88.648 92.608 86.056 92.608C84.568 92.608 83.272 93.064 82.168 93.976C81.064 94.888 80.512 96.112 80.512 97.648C80.512 98.416 80.68 99.064 81.016 99.592C81.4 100.072 81.784 100.48 82.168 100.816C82.6 101.152 82.816 101.344 82.816 101.392C82.816 101.68 82.504 102.064 81.88 102.544C81.304 102.976 80.584 103.192 79.72 103.192C78.28 103.192 77.128 102.664 76.264 101.608C75.448 100.552 75.04 99.304 75.04 97.864C75.04 95.368 76.144 93.52 78.352 92.32C80.608 91.12 83.32 90.52 86.488 90.52C90.424 90.52 93.616 91.264 96.064 92.752C98.56 94.24 99.808 97 99.808 101.032V117.808C99.856 118.816 100.168 119.776 100.744 120.688C101.32 121.6 102.256 122.056 103.552 122.056C103.936 122.056 104.2 122.128 104.344 122.272C104.536 122.416 104.632 122.728 104.632 123.208C104.632 123.784 104.176 124.192 103.264 124.432C102.4 124.72 101.536 124.864 100.672 124.864C98.848 124.864 97.24 124.336 95.848 123.28C94.456 122.224 93.664 120.808 93.472 119.032C92.464 120.904 90.904 122.344 88.792 123.352C86.728 124.36 84.496 124.864 82.096 124.864ZM84.4 120.976C86.032 120.976 87.544 120.568 88.936 119.752C90.328 118.936 91.432 117.832 92.248 116.44C93.064 115 93.472 113.416 93.472 111.688V107.584C88.432 107.968 84.88 108.784 82.816 110.032C80.752 111.28 79.72 113.296 79.72 116.08C79.72 119.344 81.28 120.976 84.4 120.976ZM117.95 100C117.605 100 117.288 99.8992 117 99.6976C116.741 99.496 116.611 99.2368 116.611 98.92V89.7616H108.23C107.971 89.7616 107.741 89.6464 107.539 89.416C107.366 89.1568 107.28 88.8832 107.28 88.5952C107.28 88.3072 107.366 88.048 107.539 87.8176C107.741 87.5584 107.971 87.4288 108.23 87.4288H116.611V79.3072C116.611 78.9904 116.741 78.7312 117 78.5296C117.288 78.328 117.619 78.2272 117.994 78.2272C118.339 78.2272 118.642 78.328 118.901 78.5296C119.189 78.7312 119.333 78.9904 119.333 79.3072V87.4288H127.67C127.93 87.4288 128.146 87.5584 128.318 87.8176C128.52 88.048 128.621 88.3072 128.621 88.5952C128.621 88.8832 128.52 89.1568 128.318 89.416C128.146 89.6464 127.93 89.7616 127.67 89.7616H119.333V98.92C119.333 99.2368 119.189 99.496 118.901 99.6976C118.642 99.8992 118.325 100 117.95 100Z"
        fill="black" />

</svg>
