<svg width="250" height="120" viewBox="0 0 250 120" fill="none" xmlns="http://www.w3.org/2000/svg">
<g clip-path="url(#clip0_34_31)">
<rect width="250" height="120" fill="#ADB5BD"/>
<g filter="url(#filter0_d_34_31)">
<rect x="75" y="20" width="100" height="100" fill="white"/>
</g>
<path d="M104.352 43V40.0909H105.335C105.563 40.0909 105.749 40.1297 105.895 40.2074C106.041 40.2841 106.149 40.3897 106.219 40.5241C106.289 40.6586 106.324 40.8116 106.324 40.983C106.324 41.1544 106.289 41.3063 106.219 41.4389C106.149 41.5715 106.041 41.6757 105.896 41.7514C105.751 41.8262 105.566 41.8636 105.341 41.8636H104.545V41.5455H105.33C105.485 41.5455 105.61 41.5227 105.705 41.4773C105.8 41.4318 105.869 41.3674 105.912 41.2841C105.955 41.1998 105.977 41.0994 105.977 40.983C105.977 40.8665 105.955 40.7647 105.912 40.6776C105.868 40.5904 105.799 40.5232 105.703 40.4759C105.607 40.4276 105.481 40.4034 105.324 40.4034H104.705V43H104.352ZM105.722 41.6932L106.438 43H106.028L105.324 41.6932H105.722ZM107.757 43.0455C107.547 43.0455 107.365 42.9991 107.213 42.9062C107.061 42.8125 106.944 42.6818 106.862 42.5142C106.78 42.3456 106.74 42.1496 106.74 41.9261C106.74 41.7027 106.78 41.5057 106.862 41.3352C106.944 41.1638 107.059 41.0303 107.206 40.9347C107.353 40.8381 107.526 40.7898 107.723 40.7898C107.836 40.7898 107.949 40.8087 108.059 40.8466C108.17 40.8845 108.271 40.946 108.362 41.0312C108.453 41.1155 108.525 41.2273 108.579 41.3665C108.633 41.5057 108.66 41.6771 108.66 41.8807V42.0227H106.978V41.733H108.319C108.319 41.6098 108.295 41.5 108.245 41.4034C108.197 41.3068 108.128 41.2306 108.038 41.1747C107.949 41.1188 107.844 41.0909 107.723 41.0909C107.589 41.0909 107.474 41.1241 107.376 41.1903C107.279 41.2557 107.205 41.3409 107.153 41.446C107.101 41.5511 107.075 41.6638 107.075 41.7841V41.9773C107.075 42.142 107.103 42.2817 107.16 42.3963C107.218 42.5099 107.298 42.5966 107.4 42.6562C107.502 42.715 107.621 42.7443 107.757 42.7443C107.845 42.7443 107.924 42.732 107.995 42.7074C108.067 42.6818 108.129 42.6439 108.181 42.5938C108.234 42.5426 108.274 42.4792 108.302 42.4034L108.626 42.4943C108.592 42.6042 108.535 42.7008 108.454 42.7841C108.374 42.8665 108.274 42.9309 108.156 42.9773C108.038 43.0227 107.904 43.0455 107.757 43.0455ZM109.17 43.8182V40.8182H109.494V41.1648H109.534C109.558 41.1269 109.592 41.0786 109.636 41.0199C109.681 40.9602 109.744 40.9072 109.826 40.8608C109.91 40.8134 110.022 40.7898 110.164 40.7898C110.348 40.7898 110.51 40.8357 110.65 40.9276C110.79 41.0194 110.9 41.1496 110.978 41.3182C111.057 41.4867 111.096 41.6856 111.096 41.9148C111.096 42.1458 111.057 42.3461 110.978 42.5156C110.9 42.6842 110.791 42.8149 110.652 42.9077C110.512 42.9995 110.352 43.0455 110.17 43.0455C110.03 43.0455 109.918 43.0223 109.833 42.9759C109.749 42.9285 109.684 42.875 109.639 42.8153C109.593 42.7547 109.558 42.7045 109.534 42.6648H109.505V43.8182H109.17ZM109.5 41.9091C109.5 42.0739 109.524 42.2192 109.572 42.3452C109.62 42.4702 109.691 42.5682 109.784 42.6392C109.877 42.7093 109.99 42.7443 110.125 42.7443C110.265 42.7443 110.382 42.7074 110.475 42.6335C110.57 42.5587 110.641 42.4583 110.689 42.3324C110.737 42.2055 110.761 42.0644 110.761 41.9091C110.761 41.7557 110.737 41.6174 110.69 41.4943C110.644 41.3703 110.573 41.2723 110.478 41.2003C110.385 41.1274 110.267 41.0909 110.125 41.0909C109.988 41.0909 109.874 41.1255 109.781 41.1946C109.688 41.2628 109.618 41.3584 109.571 41.4815C109.523 41.6037 109.5 41.7462 109.5 41.9091ZM112.494 43.0455C112.297 43.0455 112.124 42.9986 111.975 42.9048C111.828 42.8111 111.712 42.6799 111.629 42.5114C111.547 42.3428 111.505 42.1458 111.505 41.9205C111.505 41.6932 111.547 41.4948 111.629 41.3253C111.712 41.1558 111.828 41.0241 111.975 40.9304C112.124 40.8366 112.297 40.7898 112.494 40.7898C112.691 40.7898 112.863 40.8366 113.011 40.9304C113.16 41.0241 113.275 41.1558 113.358 41.3253C113.441 41.4948 113.483 41.6932 113.483 41.9205C113.483 42.1458 113.441 42.3428 113.358 42.5114C113.275 42.6799 113.16 42.8111 113.011 42.9048C112.863 42.9986 112.691 43.0455 112.494 43.0455ZM112.494 42.7443C112.644 42.7443 112.767 42.706 112.863 42.6293C112.96 42.5526 113.031 42.4517 113.078 42.3267C113.124 42.2017 113.147 42.0663 113.147 41.9205C113.147 41.7746 113.124 41.6387 113.078 41.5128C113.031 41.3868 112.96 41.285 112.863 41.2074C112.767 41.1297 112.644 41.0909 112.494 41.0909C112.344 41.0909 112.221 41.1297 112.125 41.2074C112.028 41.285 111.957 41.3868 111.91 41.5128C111.864 41.6387 111.841 41.7746 111.841 41.9205C111.841 42.0663 111.864 42.2017 111.91 42.3267C111.957 42.4517 112.028 42.5526 112.125 42.6293C112.221 42.706 112.344 42.7443 112.494 42.7443ZM113.994 43V40.8182H114.318V41.1477H114.341C114.381 41.0398 114.453 40.9522 114.557 40.8849C114.661 40.8177 114.778 40.7841 114.909 40.7841C114.934 40.7841 114.964 40.7846 115.001 40.7855C115.038 40.7865 115.066 40.7879 115.085 40.7898V41.1307C115.074 41.1278 115.048 41.1236 115.007 41.1179C114.967 41.1113 114.925 41.108 114.881 41.108C114.775 41.108 114.68 41.1302 114.597 41.1747C114.514 41.2183 114.449 41.2789 114.401 41.3565C114.353 41.4332 114.33 41.5208 114.33 41.6193V43H113.994ZM116.568 40.8182V41.1023H115.438V40.8182H116.568ZM115.767 40.2955H116.102V42.375C116.102 42.4697 116.116 42.5407 116.143 42.5881C116.172 42.6345 116.208 42.6657 116.251 42.6818C116.296 42.697 116.343 42.7045 116.392 42.7045C116.429 42.7045 116.459 42.7027 116.483 42.6989C116.507 42.6941 116.526 42.6903 116.54 42.6875L116.608 42.9886C116.585 42.9972 116.554 43.0057 116.513 43.0142C116.472 43.0237 116.42 43.0284 116.358 43.0284C116.263 43.0284 116.17 43.008 116.08 42.9673C115.99 42.9266 115.915 42.8646 115.855 42.7812C115.796 42.6979 115.767 42.5928 115.767 42.4659V40.2955ZM118.533 41.6875V43H118.197V40.8182H118.521V41.1591H118.55C118.601 41.0483 118.679 40.9593 118.783 40.892C118.887 40.8239 119.021 40.7898 119.186 40.7898C119.334 40.7898 119.463 40.8201 119.574 40.8807C119.685 40.9403 119.771 41.0312 119.832 41.1534C119.894 41.2746 119.925 41.428 119.925 41.6136V43H119.589V41.6364C119.589 41.465 119.545 41.3314 119.456 41.2358C119.367 41.1392 119.245 41.0909 119.089 41.0909C118.982 41.0909 118.887 41.1141 118.803 41.1605C118.719 41.2069 118.653 41.2746 118.605 41.3636C118.557 41.4527 118.533 41.5606 118.533 41.6875ZM121.424 43.0455C121.227 43.0455 121.054 42.9986 120.905 42.9048C120.757 42.8111 120.642 42.6799 120.559 42.5114C120.476 42.3428 120.435 42.1458 120.435 41.9205C120.435 41.6932 120.476 41.4948 120.559 41.3253C120.642 41.1558 120.757 41.0241 120.905 40.9304C121.054 40.8366 121.227 40.7898 121.424 40.7898C121.621 40.7898 121.793 40.8366 121.941 40.9304C122.089 41.0241 122.205 41.1558 122.287 41.3253C122.371 41.4948 122.412 41.6932 122.412 41.9205C122.412 42.1458 122.371 42.3428 122.287 42.5114C122.205 42.6799 122.089 42.8111 121.941 42.9048C121.793 42.9986 121.621 43.0455 121.424 43.0455ZM121.424 42.7443C121.573 42.7443 121.696 42.706 121.793 42.6293C121.89 42.5526 121.961 42.4517 122.007 42.3267C122.054 42.2017 122.077 42.0663 122.077 41.9205C122.077 41.7746 122.054 41.6387 122.007 41.5128C121.961 41.3868 121.89 41.285 121.793 41.2074C121.696 41.1297 121.573 41.0909 121.424 41.0909C121.274 41.0909 121.151 41.1297 121.054 41.2074C120.958 41.285 120.886 41.3868 120.84 41.5128C120.793 41.6387 120.77 41.7746 120.77 41.9205C120.77 42.0663 120.793 42.2017 120.84 42.3267C120.886 42.4517 120.958 42.5526 121.054 42.6293C121.151 42.706 121.274 42.7443 121.424 42.7443ZM123.168 43.0227C123.098 43.0227 123.038 42.9976 122.988 42.9474C122.938 42.8973 122.913 42.8371 122.913 42.767C122.913 42.697 122.938 42.6368 122.988 42.5866C123.038 42.5365 123.098 42.5114 123.168 42.5114C123.238 42.5114 123.299 42.5365 123.349 42.5866C123.399 42.6368 123.424 42.697 123.424 42.767C123.424 42.8134 123.412 42.8561 123.388 42.8949C123.366 42.9337 123.335 42.965 123.296 42.9886C123.258 43.0114 123.216 43.0227 123.168 43.0227ZM125.401 40.8182L125.923 41.7102L126.446 40.8182H126.832L126.128 41.9091L126.832 43H126.446L125.923 42.1534L125.401 43H125.014L125.707 41.9091L125.014 40.8182H125.401ZM127.561 40.8182L128.083 41.7102L128.606 40.8182H128.993L128.288 41.9091L128.993 43H128.606L128.083 42.1534L127.561 43H127.174L127.868 41.9091L127.174 40.8182H127.561ZM129.721 40.8182L130.244 41.7102L130.766 40.8182H131.153L130.448 41.9091L131.153 43H130.766L130.244 42.1534L129.721 43H129.335L130.028 41.9091L129.335 40.8182H129.721ZM131.881 40.8182L132.404 41.7102L132.926 40.8182H133.313L132.608 41.9091L133.313 43H132.926L132.404 42.1534L131.881 43H131.495L132.188 41.9091L131.495 40.8182H131.881ZM134.041 40.8182L134.564 41.7102L135.087 40.8182H135.473L134.768 41.9091L135.473 43H135.087L134.564 42.1534L134.041 43H133.655L134.348 41.9091L133.655 40.8182H134.041ZM136.201 40.8182L136.724 41.7102L137.247 40.8182H137.633L136.929 41.9091L137.633 43H137.247L136.724 42.1534L136.201 43H135.815L136.508 41.9091L135.815 40.8182H136.201Z" fill="#ADB5BD"/>
<circle cx="92" cy="37" r="8" fill="url(#paint0_linear_34_31)"/>
<g filter="url(#filter1_d_34_31)">
<path d="M88 41V33.0021C88 32.449 88.449 32.0009 89.0021 32.0021L93.3556 32.0112C93.5887 32.0117 93.8143 32.0936 93.9934 32.2428L95.6399 33.614C95.8681 33.804 96 34.0855 96 34.3824V41C96 41.5523 95.5523 42 95 42H89C88.4477 42 88 41.5523 88 41Z" fill="white"/>
</g>
<path d="M90.176 39.084C89.896 39.084 89.6697 39.0047 89.497 38.846C89.3243 38.6873 89.238 38.489 89.238 38.251C89.238 37.957 89.336 37.7377 89.532 37.593C89.728 37.4437 89.9613 37.348 90.232 37.306C90.5027 37.2593 90.8527 37.2243 91.282 37.201V36.648C91.282 36.4193 91.2237 36.2467 91.107 36.13C90.995 36.0087 90.813 35.948 90.561 35.948C90.4163 35.948 90.2903 35.9923 90.183 36.081C90.0757 36.1697 90.022 36.2887 90.022 36.438C90.022 36.5127 90.0383 36.5757 90.071 36.627C90.1083 36.6737 90.1457 36.7133 90.183 36.746C90.225 36.7787 90.246 36.7973 90.246 36.802C90.246 36.83 90.2157 36.8673 90.155 36.914C90.099 36.956 90.029 36.977 89.945 36.977C89.805 36.977 89.693 36.9257 89.609 36.823C89.5297 36.7203 89.49 36.599 89.49 36.459C89.49 36.2163 89.5973 36.0367 89.812 35.92C90.0313 35.8033 90.295 35.745 90.603 35.745C90.9857 35.745 91.296 35.8173 91.534 35.962C91.7767 36.1067 91.898 36.375 91.898 36.767V38.398C91.9027 38.496 91.933 38.5893 91.989 38.678C92.045 38.7667 92.136 38.811 92.262 38.811C92.2993 38.811 92.325 38.818 92.339 38.832C92.3577 38.846 92.367 38.8763 92.367 38.923C92.367 38.979 92.3227 39.0187 92.234 39.042C92.15 39.07 92.066 39.084 91.982 39.084C91.8047 39.084 91.6483 39.0327 91.513 38.93C91.3777 38.8273 91.3007 38.6897 91.282 38.517C91.184 38.699 91.0323 38.839 90.827 38.937C90.6263 39.035 90.4093 39.084 90.176 39.084ZM90.4 38.706C90.5587 38.706 90.7057 38.6663 90.841 38.587C90.9763 38.5077 91.0837 38.4003 91.163 38.265C91.2423 38.125 91.282 37.971 91.282 37.803V37.404C90.792 37.4413 90.4467 37.5207 90.246 37.642C90.0453 37.7633 89.945 37.9593 89.945 38.23C89.945 38.5473 90.0967 38.706 90.4 38.706ZM93.6618 37C93.6282 37 93.5974 36.9902 93.5694 36.9706C93.5442 36.951 93.5316 36.9258 93.5316 36.895V36.0046H92.7168C92.6916 36.0046 92.6692 35.9934 92.6496 35.971C92.6328 35.9458 92.6244 35.9192 92.6244 35.8912C92.6244 35.8632 92.6328 35.838 92.6496 35.8156C92.6692 35.7904 92.6916 35.7778 92.7168 35.7778H93.5316V34.9882C93.5316 34.9574 93.5442 34.9322 93.5694 34.9126C93.5974 34.893 93.6296 34.8832 93.666 34.8832C93.6996 34.8832 93.729 34.893 93.7542 34.9126C93.7822 34.9322 93.7962 34.9574 93.7962 34.9882V35.7778H94.6068C94.632 35.7778 94.653 35.7904 94.6698 35.8156C94.6894 35.838 94.6992 35.8632 94.6992 35.8912C94.6992 35.9192 94.6894 35.9458 94.6698 35.971C94.653 35.9934 94.632 36.0046 94.6068 36.0046H93.7962V36.895C93.7962 36.9258 93.7822 36.951 93.7542 36.9706C93.729 36.9902 93.6982 37 93.6618 37Z" fill="black"/>
<path d="M105.176 35.084C104.896 35.084 104.67 35.0047 104.497 34.846C104.324 34.6873 104.238 34.489 104.238 34.251C104.238 33.957 104.336 33.7377 104.532 33.593C104.728 33.4437 104.961 33.348 105.232 33.306C105.503 33.2593 105.853 33.2243 106.282 33.201V32.648C106.282 32.4193 106.224 32.2467 106.107 32.13C105.995 32.0087 105.813 31.948 105.561 31.948C105.416 31.948 105.29 31.9923 105.183 32.081C105.076 32.1697 105.022 32.2887 105.022 32.438C105.022 32.5127 105.038 32.5757 105.071 32.627C105.108 32.6737 105.146 32.7133 105.183 32.746C105.225 32.7787 105.246 32.7973 105.246 32.802C105.246 32.83 105.216 32.8673 105.155 32.914C105.099 32.956 105.029 32.977 104.945 32.977C104.805 32.977 104.693 32.9257 104.609 32.823C104.53 32.7203 104.49 32.599 104.49 32.459C104.49 32.2163 104.597 32.0367 104.812 31.92C105.031 31.8033 105.295 31.745 105.603 31.745C105.986 31.745 106.296 31.8173 106.534 31.962C106.777 32.1067 106.898 32.375 106.898 32.767V34.398C106.903 34.496 106.933 34.5893 106.989 34.678C107.045 34.7667 107.136 34.811 107.262 34.811C107.299 34.811 107.325 34.818 107.339 34.832C107.358 34.846 107.367 34.8763 107.367 34.923C107.367 34.979 107.323 35.0187 107.234 35.042C107.15 35.07 107.066 35.084 106.982 35.084C106.805 35.084 106.648 35.0327 106.513 34.93C106.378 34.8273 106.301 34.6897 106.282 34.517C106.184 34.699 106.032 34.839 105.827 34.937C105.626 35.035 105.409 35.084 105.176 35.084ZM105.4 34.706C105.559 34.706 105.706 34.6663 105.841 34.587C105.976 34.5077 106.084 34.4003 106.163 34.265C106.242 34.125 106.282 33.971 106.282 33.803V33.404C105.792 33.4413 105.447 33.5207 105.246 33.642C105.045 33.7633 104.945 33.9593 104.945 34.23C104.945 34.5473 105.097 34.706 105.4 34.706ZM109.146 35.084C108.828 35.084 108.576 34.9883 108.39 34.797C108.203 34.6057 108.11 34.3537 108.11 34.041V32.746C108.11 32.6247 108.105 32.536 108.096 32.48C108.091 32.424 108.063 32.375 108.012 32.333C107.96 32.291 107.874 32.27 107.753 32.27C107.697 32.27 107.655 32.263 107.627 32.249C107.599 32.2303 107.585 32.1907 107.585 32.13C107.585 32.102 107.594 32.0763 107.613 32.053C107.631 32.025 107.659 32.0087 107.697 32.004C107.991 31.962 108.243 31.9013 108.453 31.822C108.518 31.7987 108.572 31.7847 108.614 31.78H108.635C108.709 31.78 108.747 31.8243 108.747 31.913V34.034C108.747 34.2487 108.814 34.4143 108.95 34.531C109.085 34.643 109.241 34.699 109.419 34.699C109.638 34.699 109.825 34.6453 109.979 34.538C110.133 34.4307 110.235 34.3233 110.287 34.216V32.746C110.287 32.6247 110.282 32.536 110.273 32.48C110.268 32.424 110.24 32.375 110.189 32.333C110.137 32.291 110.051 32.27 109.93 32.27C109.874 32.27 109.832 32.263 109.804 32.249C109.776 32.2303 109.762 32.1907 109.762 32.13C109.762 32.102 109.771 32.0763 109.79 32.053C109.808 32.025 109.836 32.0087 109.874 32.004C110.168 31.962 110.42 31.9013 110.63 31.822C110.695 31.7987 110.749 31.7847 110.791 31.78H110.812C110.886 31.78 110.924 31.8243 110.924 31.913V34.335C110.924 34.6103 111.108 34.748 111.477 34.748C111.556 34.748 111.596 34.7923 111.596 34.881C111.596 34.9463 111.556 34.986 111.477 35L110.35 35.077C110.317 35.077 110.298 35.0653 110.294 35.042C110.289 35.0233 110.287 34.9883 110.287 34.937V34.545H110.273C110.137 34.671 110.028 34.769 109.944 34.839C109.86 34.9043 109.75 34.9603 109.615 35.007C109.484 35.0583 109.328 35.084 109.146 35.084ZM113.359 35.084C113.097 35.084 112.855 35.014 112.631 34.874C112.407 34.7293 112.227 34.531 112.092 34.279C111.956 34.0223 111.889 33.733 111.889 33.411C111.889 33.1217 111.959 32.8487 112.099 32.592C112.239 32.3353 112.432 32.13 112.68 31.976C112.927 31.822 113.202 31.745 113.506 31.745C113.65 31.745 113.795 31.7637 113.94 31.801C114.084 31.8337 114.21 31.8803 114.318 31.941H114.339V30.87C114.339 30.7487 114.334 30.66 114.325 30.604C114.32 30.548 114.292 30.499 114.241 30.457C114.189 30.415 114.103 30.394 113.982 30.394C113.926 30.394 113.884 30.387 113.856 30.373C113.828 30.3543 113.814 30.3147 113.814 30.254C113.814 30.226 113.823 30.2003 113.842 30.177C113.86 30.149 113.888 30.1327 113.926 30.128C114.22 30.086 114.472 30.0253 114.682 29.946C114.747 29.9227 114.801 29.9087 114.843 29.904H114.864C114.938 29.904 114.976 29.9483 114.976 30.037V34.356C114.976 34.6313 115.158 34.769 115.522 34.769C115.601 34.769 115.641 34.8063 115.641 34.881C115.641 34.9463 115.601 34.986 115.522 35L114.409 35.077C114.376 35.077 114.357 35.0653 114.353 35.042C114.348 35.0233 114.346 34.9883 114.346 34.937V34.657H114.325C114.203 34.783 114.054 34.8857 113.877 34.965C113.704 35.0443 113.531 35.084 113.359 35.084ZM113.597 34.734C113.76 34.734 113.898 34.7037 114.01 34.643C114.126 34.5777 114.236 34.4913 114.339 34.384V32.536C114.297 32.4007 114.208 32.277 114.073 32.165C113.942 32.053 113.776 31.997 113.576 31.997C113.394 31.997 113.228 32.0553 113.079 32.172C112.934 32.284 112.82 32.4497 112.736 32.669C112.652 32.8883 112.61 33.1473 112.61 33.446C112.61 33.8053 112.694 34.111 112.862 34.363C113.034 34.6103 113.279 34.734 113.597 34.734ZM116.005 35.021C115.972 35.021 115.944 35.007 115.921 34.979C115.902 34.951 115.893 34.9183 115.893 34.881C115.898 34.8203 115.912 34.7853 115.935 34.776C115.958 34.762 116 34.755 116.061 34.755C116.182 34.755 116.269 34.734 116.32 34.692C116.371 34.65 116.399 34.601 116.404 34.545C116.413 34.489 116.418 34.4003 116.418 34.279V32.676C116.418 32.5547 116.413 32.466 116.404 32.41C116.399 32.354 116.371 32.305 116.32 32.263C116.269 32.221 116.182 32.2 116.061 32.2C116.005 32.2 115.963 32.193 115.935 32.179C115.907 32.1603 115.893 32.1207 115.893 32.06C115.893 32.032 115.902 32.0063 115.921 31.983C115.94 31.955 115.968 31.9387 116.005 31.934C116.299 31.892 116.551 31.8313 116.761 31.752C116.826 31.7287 116.88 31.7147 116.922 31.71H116.943C117.018 31.71 117.055 31.7543 117.055 31.843V34.279C117.055 34.4003 117.06 34.489 117.069 34.545C117.078 34.601 117.109 34.65 117.16 34.692C117.211 34.734 117.298 34.755 117.419 34.755H117.461C117.498 34.755 117.526 34.762 117.545 34.776C117.564 34.79 117.575 34.825 117.58 34.881C117.58 34.9183 117.571 34.951 117.552 34.979C117.533 35.007 117.505 35.021 117.468 35.021C117.197 35.007 116.952 35 116.733 35C116.523 35 116.28 35.007 116.005 35.021ZM116.698 30.933C116.567 30.933 116.458 30.8933 116.369 30.814C116.28 30.73 116.236 30.6273 116.236 30.506C116.236 30.3987 116.29 30.303 116.397 30.219C116.504 30.135 116.626 30.093 116.761 30.093C116.878 30.093 116.973 30.135 117.048 30.219C117.123 30.2983 117.16 30.401 117.16 30.527C117.16 30.639 117.116 30.7347 117.027 30.814C116.938 30.8933 116.829 30.933 116.698 30.933ZM119.218 35.119C118.989 35.119 118.793 35.035 118.63 34.867C118.467 34.699 118.385 34.4587 118.385 34.146V32.088L117.979 32.102C117.951 32.102 117.928 32.0903 117.909 32.067C117.89 32.039 117.881 32.0087 117.881 31.976C117.881 31.934 117.888 31.899 117.902 31.871C117.921 31.8383 117.946 31.8197 117.979 31.815C118.142 31.7823 118.268 31.731 118.357 31.661C118.45 31.5863 118.518 31.507 118.56 31.423C118.602 31.3343 118.653 31.2013 118.714 31.024C118.737 30.9633 118.789 30.933 118.868 30.933C118.901 30.933 118.933 30.9423 118.966 30.961C118.999 30.975 119.015 30.9983 119.015 31.031L118.966 31.829L119.785 31.78H119.799C119.86 31.78 119.89 31.8243 119.89 31.913C119.89 31.9643 119.881 32.0133 119.862 32.06C119.848 32.102 119.829 32.123 119.806 32.123L119.022 32.102V34.23C119.022 34.384 119.052 34.5123 119.113 34.615C119.178 34.7177 119.283 34.769 119.428 34.769C119.573 34.769 119.701 34.7433 119.813 34.692C119.874 34.6687 119.911 34.657 119.925 34.657C119.958 34.657 119.983 34.671 120.002 34.699C120.021 34.7223 120.039 34.755 120.058 34.797C120.063 34.8063 120.065 34.818 120.065 34.832C120.065 34.8507 120.051 34.8717 120.023 34.895C119.888 34.9837 119.759 35.042 119.638 35.07C119.521 35.1027 119.381 35.119 119.218 35.119ZM120.631 36.456C120.599 36.456 120.571 36.442 120.547 36.414C120.529 36.386 120.519 36.3533 120.519 36.316C120.524 36.2553 120.536 36.218 120.554 36.204C120.578 36.1947 120.62 36.19 120.68 36.19C120.797 36.19 120.881 36.169 120.932 36.127C120.984 36.085 121.014 36.0337 121.023 35.973C121.037 35.9123 121.044 35.826 121.044 35.714V32.676C121.044 32.5547 121.04 32.466 121.03 32.41C121.026 32.354 120.998 32.305 120.946 32.263C120.895 32.221 120.809 32.2 120.687 32.2C120.631 32.2 120.589 32.193 120.561 32.179C120.533 32.1603 120.519 32.1207 120.519 32.06C120.519 32.032 120.529 32.0063 120.547 31.983C120.566 31.955 120.594 31.9387 120.631 31.934C120.935 31.8873 121.184 31.8267 121.38 31.752C121.46 31.7287 121.513 31.7147 121.541 31.71H121.562C121.637 31.71 121.674 31.7543 121.674 31.843V32.179H121.695C121.831 32.053 121.989 31.9503 122.171 31.871C122.353 31.787 122.526 31.745 122.689 31.745C122.969 31.745 123.219 31.815 123.438 31.955C123.662 32.095 123.837 32.2933 123.963 32.55C124.089 32.802 124.152 33.089 124.152 33.411C124.152 33.7377 124.078 34.0293 123.928 34.286C123.779 34.538 123.581 34.734 123.333 34.874C123.086 35.014 122.825 35.084 122.549 35.084C122.358 35.084 122.197 35.063 122.066 35.021C121.936 34.9837 121.817 34.9323 121.709 34.867H121.681V35.714C121.681 35.826 121.686 35.9123 121.695 35.973C121.709 36.0337 121.742 36.085 121.793 36.127C121.845 36.169 121.929 36.19 122.045 36.19H122.087C122.125 36.19 122.153 36.197 122.171 36.211C122.19 36.225 122.202 36.26 122.206 36.316C122.206 36.3533 122.197 36.386 122.178 36.414C122.16 36.442 122.132 36.456 122.094 36.456C121.824 36.442 121.579 36.435 121.359 36.435C121.149 36.435 120.907 36.442 120.631 36.456ZM122.493 34.846C122.82 34.846 123.058 34.7013 123.207 34.412C123.361 34.1227 123.438 33.796 123.438 33.432C123.438 33.068 123.354 32.7553 123.186 32.494C123.018 32.228 122.769 32.095 122.437 32.095C122.274 32.095 122.134 32.1277 122.017 32.193C121.905 32.2537 121.793 32.3423 121.681 32.459V34.335C121.737 34.475 121.835 34.5963 121.975 34.699C122.12 34.797 122.293 34.846 122.493 34.846ZM124.665 35.021C124.632 35.021 124.604 35.007 124.581 34.979C124.562 34.951 124.553 34.9183 124.553 34.881C124.557 34.8203 124.569 34.7853 124.588 34.776C124.611 34.762 124.653 34.755 124.714 34.755C124.835 34.755 124.921 34.734 124.973 34.692C125.024 34.65 125.054 34.601 125.064 34.545C125.073 34.489 125.078 34.4003 125.078 34.279V30.863C125.078 30.7417 125.073 30.653 125.064 30.597C125.059 30.541 125.031 30.492 124.98 30.45C124.928 30.408 124.842 30.387 124.721 30.387C124.665 30.387 124.623 30.38 124.595 30.366C124.567 30.3473 124.553 30.3077 124.553 30.247C124.553 30.219 124.562 30.1933 124.581 30.17C124.599 30.142 124.627 30.1257 124.665 30.121C124.959 30.079 125.211 30.0183 125.421 29.939C125.486 29.9157 125.54 29.9017 125.582 29.897H125.603C125.677 29.897 125.715 29.9413 125.715 30.03V34.279C125.715 34.4003 125.719 34.489 125.729 34.545C125.738 34.601 125.768 34.65 125.82 34.692C125.871 34.734 125.957 34.755 126.079 34.755H126.121C126.158 34.755 126.186 34.762 126.205 34.776C126.223 34.79 126.235 34.825 126.24 34.881C126.24 34.9183 126.23 34.951 126.212 34.979C126.193 35.007 126.165 35.021 126.128 35.021C125.857 35.007 125.612 35 125.393 35C125.183 35 124.94 35.007 124.665 35.021ZM128.034 35.084C127.716 35.084 127.464 34.9883 127.278 34.797C127.091 34.6057 126.998 34.3537 126.998 34.041V32.746C126.998 32.6247 126.993 32.536 126.984 32.48C126.979 32.424 126.951 32.375 126.9 32.333C126.848 32.291 126.762 32.27 126.641 32.27C126.585 32.27 126.543 32.263 126.515 32.249C126.487 32.2303 126.473 32.1907 126.473 32.13C126.473 32.102 126.482 32.0763 126.501 32.053C126.519 32.025 126.547 32.0087 126.585 32.004C126.879 31.962 127.131 31.9013 127.341 31.822C127.406 31.7987 127.46 31.7847 127.502 31.78H127.523C127.597 31.78 127.635 31.8243 127.635 31.913V34.034C127.635 34.2487 127.702 34.4143 127.838 34.531C127.973 34.643 128.129 34.699 128.307 34.699C128.526 34.699 128.713 34.6453 128.867 34.538C129.021 34.4307 129.123 34.3233 129.175 34.216V32.746C129.175 32.6247 129.17 32.536 129.161 32.48C129.156 32.424 129.128 32.375 129.077 32.333C129.025 32.291 128.939 32.27 128.818 32.27C128.762 32.27 128.72 32.263 128.692 32.249C128.664 32.2303 128.65 32.1907 128.65 32.13C128.65 32.102 128.659 32.0763 128.678 32.053C128.696 32.025 128.724 32.0087 128.762 32.004C129.056 31.962 129.308 31.9013 129.518 31.822C129.583 31.7987 129.637 31.7847 129.679 31.78H129.7C129.774 31.78 129.812 31.8243 129.812 31.913V34.335C129.812 34.6103 129.996 34.748 130.365 34.748C130.444 34.748 130.484 34.7923 130.484 34.881C130.484 34.9463 130.444 34.986 130.365 35L129.238 35.077C129.205 35.077 129.186 35.0653 129.182 35.042C129.177 35.0233 129.175 34.9883 129.175 34.937V34.545H129.161C129.025 34.671 128.916 34.769 128.832 34.839C128.748 34.9043 128.638 34.9603 128.503 35.007C128.372 35.0583 128.216 35.084 128.034 35.084ZM132.049 35.084C131.676 35.084 131.373 35.0187 131.139 34.888C130.906 34.7573 130.789 34.573 130.789 34.335C130.789 34.1997 130.829 34.09 130.908 34.006C130.992 33.922 131.1 33.88 131.23 33.88C131.305 33.88 131.37 33.901 131.426 33.943C131.487 33.985 131.517 34.0177 131.517 34.041C131.517 34.0457 131.489 34.076 131.433 34.132C131.382 34.188 131.356 34.2673 131.356 34.37C131.356 34.51 131.419 34.622 131.545 34.706C131.676 34.7853 131.863 34.825 132.105 34.825C132.325 34.825 132.495 34.7783 132.616 34.685C132.742 34.587 132.805 34.4517 132.805 34.279C132.805 34.1623 132.77 34.0667 132.7 33.992C132.63 33.9173 132.542 33.859 132.434 33.817C132.332 33.775 132.187 33.726 132 33.67C131.772 33.6047 131.585 33.5393 131.44 33.474C131.296 33.4087 131.172 33.3107 131.069 33.18C130.967 33.0493 130.915 32.879 130.915 32.669C130.915 32.473 130.976 32.305 131.097 32.165C131.219 32.025 131.375 31.92 131.566 31.85C131.762 31.78 131.968 31.745 132.182 31.745C132.458 31.745 132.696 31.8033 132.896 31.92C133.102 32.0367 133.204 32.2 133.204 32.41C133.204 32.536 133.165 32.6433 133.085 32.732C133.011 32.8207 132.91 32.865 132.784 32.865C132.71 32.865 132.642 32.844 132.581 32.802C132.525 32.76 132.497 32.7273 132.497 32.704C132.497 32.6993 132.516 32.6807 132.553 32.648C132.591 32.6153 132.623 32.578 132.651 32.536C132.684 32.4893 132.7 32.4357 132.7 32.375C132.691 32.249 132.628 32.151 132.511 32.081C132.395 32.011 132.257 31.976 132.098 31.976C131.921 31.976 131.765 32.018 131.629 32.102C131.499 32.1813 131.433 32.2933 131.433 32.438C131.433 32.5687 131.461 32.6737 131.517 32.753C131.573 32.8277 131.657 32.8883 131.769 32.935C131.881 32.9817 132.059 33.0447 132.301 33.124C132.549 33.2033 132.742 33.278 132.882 33.348C133.022 33.4133 133.132 33.5043 133.211 33.621C133.295 33.733 133.337 33.8823 133.337 34.069C133.337 34.2603 133.281 34.4353 133.169 34.594C133.057 34.748 132.903 34.8693 132.707 34.958C132.511 35.042 132.292 35.084 132.049 35.084Z" fill="black"/>
<rect x="84" y="51" width="60" height="2" rx="1" fill="#EAEAEA"/>
<rect x="84" y="55" width="60" height="2" rx="1" fill="#EAEAEA"/>
<rect x="84" y="59" width="80" height="2" rx="1" fill="#EAEAEA"/>
<rect x="84" y="63" width="80" height="2" rx="1" fill="#EAEAEA"/>
<rect x="84" y="107" width="80" height="2" rx="1" fill="#EAEAEA"/>
<rect x="84" y="67" width="80" height="2" rx="1" fill="#EAEAEA"/>
<rect x="84" y="111" width="80" height="2" rx="1" fill="#EAEAEA"/>
<rect x="84" y="79" width="20" height="2" rx="1" fill="#EAEAEA"/>
<rect x="84" y="83" width="20" height="2" rx="1" fill="#EAEAEA"/>
<rect x="84" y="87" width="20" height="2" rx="1" fill="#EAEAEA"/>
<rect x="84" y="91" width="20" height="2" rx="1" fill="#EAEAEA"/>
<rect x="84" y="95" width="20" height="2" rx="1" fill="#EAEAEA"/>
<rect x="84" y="99" width="20" height="2" rx="1" fill="#EAEAEA"/>
<rect x="108" y="79" width="20" height="2" rx="1" fill="#EAEAEA"/>
<rect x="108" y="83" width="20" height="2" rx="1" fill="#EAEAEA"/>
<rect x="108" y="87" width="20" height="2" rx="1" fill="#EAEAEA"/>
<rect x="108" y="91" width="20" height="2" rx="1" fill="#EAEAEA"/>
<rect x="108" y="95" width="20" height="2" rx="1" fill="#EAEAEA"/>
<rect x="108" y="99" width="20" height="2" rx="1" fill="#EAEAEA"/>
<rect x="132" y="79" width="20" height="2" rx="1" fill="#EAEAEA"/>
<rect x="132" y="83" width="20" height="2" rx="1" fill="#EAEAEA"/>
<rect x="132" y="87" width="20" height="2" rx="1" fill="#EAEAEA"/>
<rect x="132" y="91" width="20" height="2" rx="1" fill="#EAEAEA"/>
<rect x="132" y="95" width="20" height="2" rx="1" fill="#EAEAEA"/>
<rect x="132" y="99" width="20" height="2" rx="1" fill="#EAEAEA"/>
</g>
<defs>
<filter id="filter0_d_34_31" x="67" y="16" width="116" height="116" filterUnits="userSpaceOnUse" color-interpolation-filters="sRGB">
<feFlood flood-opacity="0" result="BackgroundImageFix"/>
<feColorMatrix in="SourceAlpha" type="matrix" values="0 0 0 0 0 0 0 0 0 0 0 0 0 0 0 0 0 0 127 0" result="hardAlpha"/>
<feOffset dy="4"/>
<feGaussianBlur stdDeviation="4"/>
<feComposite in2="hardAlpha" operator="out"/>
<feColorMatrix type="matrix" values="0 0 0 0 0.196078 0 0 0 0 0.196078 0 0 0 0 0.196078 0 0 0 0.25 0"/>
<feBlend mode="normal" in2="BackgroundImageFix" result="effect1_dropShadow_34_31"/>
<feBlend mode="normal" in="SourceGraphic" in2="effect1_dropShadow_34_31" result="shape"/>
</filter>
<filter id="filter1_d_34_31" x="78" y="24.0021" width="28" height="29.9979" filterUnits="userSpaceOnUse" color-interpolation-filters="sRGB">
<feFlood flood-opacity="0" result="BackgroundImageFix"/>
<feColorMatrix in="SourceAlpha" type="matrix" values="0 0 0 0 0 0 0 0 0 0 0 0 0 0 0 0 0 0 127 0" result="hardAlpha"/>
<feOffset dy="2"/>
<feGaussianBlur stdDeviation="5"/>
<feComposite in2="hardAlpha" operator="out"/>
<feColorMatrix type="matrix" values="0 0 0 0 0.129412 0 0 0 0 0.129412 0 0 0 0 0.129412 0 0 0 0.25 0"/>
<feBlend mode="normal" in2="BackgroundImageFix" result="effect1_dropShadow_34_31"/>
<feBlend mode="normal" in="SourceGraphic" in2="effect1_dropShadow_34_31" result="shape"/>
</filter>
<linearGradient id="paint0_linear_34_31" x1="100" y1="29" x2="84" y2="45" gradientUnits="userSpaceOnUse">
<stop stop-color="#FDD835"/>
<stop offset="0.725074" stop-color="#FF6D00"/>
</linearGradient>
<clipPath id="clip0_34_31">
<rect width="250" height="120" fill="white"/>
</clipPath>
</defs>
</svg>
